<?xml version="1.0" encoding="utf-8"?>
<!-- Generator: Adobe Illustrator 17.0.0, SVG Export Plug-In . SVG Version: 6.00 Build 0)  -->
<!DOCTYPE svg PUBLIC "-//W3C//DTD SVG 1.1//EN" "http://www.w3.org/Graphics/SVG/1.1/DTD/svg11.dtd">
<svg version="1.1" xmlns="http://www.w3.org/2000/svg" xmlns:xlink="http://www.w3.org/1999/xlink" x="0px" y="0px" width="1000px"
	 height="1000px" viewBox="0 0 1000 1000" enable-background="new 0 0 1000 1000" xml:space="preserve">
<g id="Layer_5">
</g>
<g id="Layer_6">
	<g>
		<polygon fill="#373737" points="303.265,379.589 315.849,392.182 328.937,379.085 316.353,366.492 		"/>
		<polygon fill="#373737" points="316.353,366.492 328.937,353.899 315.849,340.802 303.265,353.395 		"/>
		<path fill="#373737" d="M303.265,328.209l-25.478-25.496c-5.807,2.294-11.243,5.323-16.172,9.003l29.065,29.085L303.265,328.209z"
			/>
		<polygon fill="#373737" points="303.265,353.395 290.681,340.802 277.593,353.899 290.177,366.492 		"/>
		<polygon fill="#373737" points="290.177,366.492 277.593,379.085 290.681,392.182 303.265,379.589 		"/>
		<path fill="#373737" d="M303.265,404.775l27.777,27.796c5.692-2.433,10.988-5.609,15.788-9.387l-30.981-31.002L303.265,404.775z"
			/>
		<path fill="#373737" d="M341.521,366.492l26.362-26.38c-2.459-5.675-5.649-10.955-9.445-15.734l-29.501,29.521L341.521,366.492z"
			/>
		<path fill="#373737" d="M328.937,379.085l30.827,30.848c3.677-4.932,6.705-10.372,8.997-16.183l-27.24-27.259L328.937,379.085z"/>
		<path fill="#373737" d="M303.265,328.209l12.584,12.593l29.275-29.295c-4.954-3.659-10.409-6.671-16.239-8.936L303.265,328.209z"
			/>
		<path fill="#373737" d="M265.008,366.492l-26.879,26.897c2.264,5.834,5.273,11.293,8.93,16.25l30.533-30.554L265.008,366.492z"/>
		<path fill="#373737" d="M290.681,392.182l-30.759,30.78c4.776,3.799,10.052,6.991,15.723,9.452l27.62-27.639L290.681,392.182z"/>
		<path fill="#373737" d="M277.593,353.899l-29.219-29.239c-3.776,4.804-6.949,10.103-9.381,15.799l26.015,26.033L277.593,353.899z"
			/>
		<text transform="matrix(0.9993 0 0 1 363.5859 392.1816)" fill="#373737" font-family="'TimesNewRomanPSMT'" font-size="72.536">G</text>
		<text transform="matrix(0.9993 0 0 1 410.2324 393.2329)" fill="#373737" font-family="'TimesNewRomanPSMT'" font-size="68.6605">ri</text>
		<text transform="matrix(0.9993 0 0 1 452.5146 393.2827)" fill="#373737" font-family="'TimesNewRomanPSMT'" font-size="69.5548">dl</text>
	</g>
</g>
</svg>
