<?xml version="1.0" encoding="utf-8"?>
<!-- Generator: Adobe Illustrator 17.0.0, SVG Export Plug-In . SVG Version: 6.00 Build 0)  -->
<!DOCTYPE svg PUBLIC "-//W3C//DTD SVG 1.1//EN" "http://www.w3.org/Graphics/SVG/1.1/DTD/svg11.dtd">
<svg version="1.1" id="Layer_1" xmlns="http://www.w3.org/2000/svg" xmlns:xlink="http://www.w3.org/1999/xlink" x="0px" y="0px"
	 width="275px" height="130px" viewBox="0 0 275 130" enable-background="new 0 0 275 130" xml:space="preserve">
<g>
	<polygon fill="#373737" points="65.135,77.018 77.72,89.611 90.807,76.514 78.223,63.921 	"/>
	<polygon fill="#373737" points="78.223,63.921 90.807,51.328 77.72,38.231 65.135,50.824 	"/>
	<path fill="#373737" d="M65.135,25.638L39.657,0.142C33.85,2.436,28.414,5.466,23.485,9.146l29.065,29.085L65.135,25.638z"/>
	<polygon fill="#373737" points="65.135,50.824 52.551,38.231 39.463,51.328 52.047,63.921 	"/>
	<polygon fill="#373737" points="52.047,63.921 39.463,76.514 52.551,89.611 65.135,77.018 	"/>
	<path fill="#373737" d="M65.135,102.204L92.912,130c5.692-2.433,10.988-5.609,15.788-9.387L77.72,89.611L65.135,102.204z"/>
	<path fill="#373737" d="M103.392,63.921l26.362-26.38c-2.459-5.675-5.649-10.955-9.446-15.734L90.807,51.328L103.392,63.921z"/>
	<path fill="#373737" d="M90.807,76.514l30.827,30.848c3.677-4.932,6.705-10.372,8.997-16.183l-27.24-27.259L90.807,76.514z"/>
	<path fill="#373737" d="M65.135,25.638L77.72,38.231l29.275-29.295C102.04,5.277,96.585,2.265,90.755,0L65.135,25.638z"/>
	<path fill="#373737" d="M26.879,63.921L0,90.818c2.264,5.834,5.273,11.293,8.93,16.25l30.533-30.554L26.879,63.921z"/>
	<path fill="#373737" d="M52.551,89.611l-30.759,30.78c4.776,3.799,10.052,6.991,15.723,9.452l27.62-27.639L52.551,89.611z"/>
	<path fill="#373737" d="M39.463,51.328L10.244,22.089c-3.776,4.804-6.949,10.103-9.381,15.799l26.015,26.033L39.463,51.328z"/>
	<text transform="matrix(0.9993 0 0 1 125.4562 89.6105)" fill="#373737" font-family="'RobotoSlab-Thin'" font-size="72.536">G</text>
	<text transform="matrix(0.9993 0 0 1 172.1027 90.6617)" fill="#373737" font-family="'RobotoSlab-Thin'" font-size="68.6605">ri</text>
	<text transform="matrix(0.9993 0 0 1 214.3849 90.7115)" fill="#373737" font-family="'RobotoSlab-Thin'" font-size="69.5548">dl</text>
</g>
</svg>
